<?xml version="1.0" encoding="utf-8"?>
<!-- Generator: Adobe Illustrator 27.0.0, SVG Export Plug-In . SVG Version: 6.00 Build 0)  -->
<svg version="1.1" id="Ebene_1" xmlns="http://www.w3.org/2000/svg" xmlns:xlink="http://www.w3.org/1999/xlink" x="0px" y="0px"
	 viewBox="0 0 32 40" style="enable-background:new 0 0 32 40;" xml:space="preserve">
<path d="M16,19.5c1,0,1.8-0.3,2.5-1c0.7-0.7,1-1.5,1-2.5s-0.3-1.8-1-2.5c-0.7-0.7-1.5-1-2.5-1s-1.8,0.3-2.5,1c-0.7,0.7-1,1.5-1,2.5
	s0.3,1.8,1,2.5C14.2,19.2,15,19.5,16,19.5z M16,36c4.4-4,7.7-7.7,9.8-11s3.2-6.2,3.2-8.7c0-3.9-1.3-7.1-3.8-9.6S19.6,3,16,3
	S9.3,4.2,6.8,6.8S3,12.5,3,16.4c0,2.5,1.1,5.4,3.2,8.7S11.7,32,16,36z M16,40c-5.4-4.6-9.4-8.8-12-12.7s-4-7.5-4-10.9
	c0-5,1.6-9,4.8-11.9S11.8,0,16,0s8,1.5,11.2,4.4S32,11.4,32,16.4c0,3.3-1.3,7-4,10.9S21.4,35.4,16,40z"/>
</svg>
